<svg width="293" height="98" viewBox="0 0 293 98" fill="none" xmlns="http://www.w3.org/2000/svg">
<rect width="293" height="98" rx="10" fill="#212937"/>
<g clip-path="url(#clip0_246_288)">
<path d="M165.328 39.473L161.011 39.4411L161.653 35.1772C161.714 34.7328 161.635 34.2805 161.428 33.8825C161.221 33.4846 160.896 33.1607 160.497 32.9555L154.682 29.9936C154.278 29.7878 153.82 29.7137 153.372 29.7817C152.924 29.8496 152.509 30.0563 152.185 30.3725L149.113 33.3988L146.549 29.9266C146.28 29.5652 145.905 29.2967 145.476 29.1585C145.047 29.0202 144.586 29.019 144.157 29.1552L137.975 31.165C137.543 31.3043 137.165 31.576 136.896 31.9416C136.626 32.3072 136.478 32.7483 136.473 33.2025L136.441 37.5189L132.177 36.8776C131.733 36.8165 131.281 36.8948 130.883 37.1017C130.485 37.3086 130.161 37.6339 129.956 38.0328L126.994 43.8486C126.788 44.2521 126.714 44.7101 126.782 45.1579C126.85 45.6058 127.056 46.0211 127.373 46.3454L130.399 49.4169L126.927 51.9812C126.565 52.2502 126.297 52.6253 126.159 53.0541C126.02 53.4829 126.019 53.9441 126.155 54.3736L128.165 60.5551C128.304 60.9874 128.576 61.365 128.942 61.6345C129.307 61.904 129.748 62.0518 130.203 62.057L134.519 62.0889L133.878 66.3528C133.817 66.7972 133.895 67.2495 134.102 67.6475C134.309 68.0454 134.634 68.3693 135.033 68.5745L140.849 71.5364C141.252 71.7422 141.71 71.8163 142.158 71.7483C142.606 71.6804 143.021 71.4737 143.346 71.1575L146.417 68.1312L148.981 71.6034C149.253 71.9678 149.631 72.2376 150.065 72.3748C150.498 72.512 150.963 72.5097 151.394 72.3681L157.576 70.3583C158.008 70.219 158.386 69.9473 158.655 69.5817C158.925 69.2161 159.073 68.775 159.078 68.3208L159.11 64.0044L163.374 64.6457C163.814 64.7029 164.261 64.6234 164.655 64.418C165.049 64.2126 165.37 63.8911 165.575 63.4972L168.537 57.6814C168.742 57.2779 168.816 56.8199 168.748 56.3721C168.68 55.9242 168.474 55.5089 168.158 55.1846L165.131 52.1131L168.604 49.5488C168.965 49.2798 169.233 48.9047 169.372 48.4759C169.51 48.0471 169.511 47.5859 169.375 47.1564L167.365 40.9749C167.226 40.5426 166.954 40.165 166.589 39.8955C166.223 39.626 165.782 39.4782 165.328 39.473ZM164.772 47.0127L162.567 48.6408C162.058 49.0101 161.636 49.4857 161.33 50.0344C161.023 50.5832 160.84 51.192 160.792 51.8188C160.744 52.4455 160.834 53.0751 161.054 53.6639C161.274 54.2527 161.619 54.7866 162.066 55.2286L164.004 57.1957L162.475 60.1991L159.786 59.7065C159.172 59.615 158.545 59.6565 157.948 59.8282C157.352 59.9999 156.799 60.2978 156.328 60.7017C155.856 61.1056 155.477 61.606 155.216 62.1692C154.955 62.7323 154.818 63.345 154.814 63.9657L154.794 66.7063L151.517 67.7715L149.889 65.5669C149.52 65.0583 149.044 64.6361 148.496 64.3296C147.947 64.0231 147.338 63.8397 146.711 63.792C146.085 63.7444 145.455 63.8336 144.866 64.0536C144.277 64.2736 143.744 64.619 143.302 65.0659L141.334 67.0041L138.331 65.4745L138.824 62.7854C138.925 62.1651 138.891 61.5301 138.722 60.9246C138.554 60.319 138.256 59.7573 137.849 59.2784C137.442 58.7996 136.935 58.415 136.365 58.1514C135.794 57.8878 135.173 57.7515 134.544 57.7519L131.804 57.7316L130.759 54.5173L132.963 52.8892C133.472 52.5199 133.894 52.0443 134.201 51.4956C134.507 50.9468 134.69 50.338 134.738 49.7112C134.786 49.0845 134.697 48.4549 134.477 47.8661C134.257 47.2773 133.911 46.7434 133.464 46.3014L131.546 44.3962L133.076 41.3927L135.745 41.8235C136.365 41.9251 137 41.8905 137.606 41.7221C138.211 41.5538 138.773 41.2557 139.252 40.8486C139.731 40.4415 140.115 39.935 140.379 39.3644C140.642 38.7938 140.779 38.1727 140.778 37.5442L140.798 34.8036L144.013 33.7585L145.641 35.9631C146.01 36.4717 146.486 36.8939 147.035 37.2004C147.583 37.5069 148.192 37.6903 148.819 37.738C149.446 37.7856 150.075 37.6964 150.664 37.4764C151.253 37.2564 151.787 36.911 152.229 36.4641L154.196 34.5259L157.199 36.0555L156.707 38.7446C156.615 39.3586 156.657 39.9851 156.828 40.5816C157 41.1782 157.298 41.7309 157.702 42.2023C158.106 42.6737 158.606 43.0529 159.169 43.3141C159.732 43.5753 160.345 43.7124 160.966 43.7163L163.706 43.7365L164.772 47.0127ZM145.085 42.523C143.455 43.053 142.019 44.0545 140.958 45.4008C139.897 46.7471 139.259 48.3778 139.125 50.0867C138.991 51.7955 139.366 53.5058 140.204 55.0012C141.042 56.4966 142.305 57.7099 143.832 58.4878C145.359 59.2657 147.083 59.5732 148.785 59.3714C150.488 59.1696 152.092 58.4676 153.395 57.3541C154.698 56.2406 155.642 54.7657 156.107 53.1159C156.572 51.466 156.537 49.7154 156.007 48.0853C155.296 45.8994 153.746 44.0853 151.698 43.0422C149.65 41.9991 147.271 41.8123 145.085 42.523ZM149.105 54.886C148.29 55.151 147.415 55.1683 146.59 54.9359C145.765 54.7034 145.027 54.2315 144.471 53.5799C143.914 52.9283 143.563 52.1262 143.462 51.2752C143.361 50.4241 143.515 49.5622 143.904 48.7984C144.293 48.0347 144.899 47.4035 145.647 46.9846C146.395 46.5657 147.25 46.3779 148.104 46.445C148.959 46.512 149.774 46.831 150.447 47.3614C151.12 47.8919 151.621 48.6101 151.886 49.4251C152.241 50.5181 152.148 51.7074 151.627 52.7315C151.105 53.7557 150.198 54.5306 149.105 54.886Z" fill="#8B8B8B"/>
</g>
<path d="M36.25 18.375V74.625C36.25 76.5 37.5 77.75 39.375 77.75H73.75V15.25H39.375C37.5 15.25 36.25 16.5 36.25 18.375ZM95.625 15.25H80V77.75H95.625C97.5 77.75 98.75 76.5 98.75 74.625V18.375C98.75 16.5 97.5 15.25 95.625 15.25Z" fill="#8B8B8B"/>
<path d="M53.5 12.6667H20.5C19.4 12.6667 18.6667 13.4001 18.6667 14.5001V23.6667H55.3333V14.5001C55.3333 13.4001 54.6 12.6667 53.5 12.6667ZM18.6667 47.5001C18.6667 48.6001 19.4 49.3334 20.5 49.3334H53.5C54.6 49.3334 55.3333 48.6001 55.3333 47.5001V27.3334H18.6667V47.5001Z" fill="#C4C4C4"/>
<path d="M104.833 18.7499V53.2499C104.833 54.3999 105.6 55.1666 106.75 55.1666H116.333V16.8333H106.75C105.6 16.8333 104.833 17.5999 104.833 18.7499ZM141.25 16.8333H120.167V34.0833H143.167V18.7499C143.167 17.5999 142.4 16.8333 141.25 16.8333ZM120.167 55.1666H141.25C142.4 55.1666 143.167 54.3999 143.167 53.2499V37.9166H120.167V55.1666Z" fill="#C4C4C4"/>
<path d="M231.625 22.5833H181.375C179.7 22.5833 178.583 23.6999 178.583 25.3749V39.3333H234.417V25.3749C234.417 23.6999 233.3 22.5833 231.625 22.5833ZM234.417 75.6249V44.9166H209.292V78.4166H231.625C233.3 78.4166 234.417 77.2999 234.417 75.6249ZM178.583 44.9166V75.6249C178.583 77.2999 179.7 78.4166 181.375 78.4166H203.708V44.9166H178.583Z" fill="#8B8B8B"/>
<path d="M282.193 25.6916L278.098 24.3266L280.027 20.4699C280.222 20.0662 280.288 19.6118 280.214 19.1694C280.14 18.727 279.931 18.3184 279.615 17.9999L275 13.3849C274.68 13.0644 274.267 12.8524 273.82 12.7785C273.373 12.7047 272.915 12.7728 272.508 12.9733L268.652 14.9016L267.287 10.8066C267.142 10.3797 266.869 10.0084 266.504 9.74438C266.139 9.48031 265.701 9.33661 265.25 9.33326H258.75C258.296 9.33209 257.853 9.4737 257.483 9.73808C257.114 10.0025 256.837 10.3762 256.692 10.8066L255.327 14.9016L251.47 12.9733C251.066 12.7778 250.612 12.7124 250.169 12.7861C249.727 12.8599 249.318 13.0691 249 13.3849L244.385 17.9999C244.065 18.3201 243.852 18.7326 243.779 19.1796C243.705 19.6265 243.773 20.0854 243.973 20.4916L245.902 24.3483L241.807 25.7133C241.38 25.8574 241.009 26.1311 240.744 26.4961C240.48 26.8611 240.337 27.2994 240.333 27.7499V34.2499C240.332 34.7042 240.474 35.1473 240.738 35.5166C241.003 35.886 241.376 36.1629 241.807 36.3083L245.902 37.6733L243.973 41.5299C243.778 41.9336 243.712 42.388 243.786 42.8304C243.86 43.2728 244.069 43.6815 244.385 43.9999L249 48.6149C249.32 48.9354 249.733 49.1475 250.18 49.2213C250.627 49.2952 251.085 49.2271 251.492 49.0266L255.348 47.0983L256.713 51.1933C256.859 51.6236 257.136 51.9974 257.505 52.2618C257.874 52.5261 258.317 52.6678 258.772 52.6666H265.272C265.726 52.6678 266.169 52.5261 266.538 52.2618C266.908 51.9974 267.185 51.6236 267.33 51.1933L268.695 47.0983L272.552 49.0266C272.953 49.2171 273.403 49.2798 273.841 49.2062C274.279 49.1326 274.683 48.9262 275 48.6149L279.615 43.9999C279.935 43.6798 280.148 43.2672 280.221 42.8203C280.295 42.3733 280.227 41.9145 280.027 41.5083L278.098 37.6516L282.193 36.2866C282.62 36.1424 282.991 35.8688 283.256 35.5038C283.52 35.1387 283.663 34.7004 283.667 34.2499V27.7499C283.668 27.2957 283.526 26.8526 283.262 26.4832C282.997 26.1139 282.624 25.8369 282.193 25.6916ZM279.333 32.6899L276.733 33.5566C276.135 33.7505 275.587 34.0722 275.126 34.4993C274.665 34.9264 274.302 35.4487 274.063 36.03C273.824 36.6113 273.714 37.2376 273.741 37.8656C273.768 38.4936 273.932 39.1081 274.22 39.6666L275.455 42.1366L273.072 44.5199L270.667 43.2199C270.111 42.9431 269.502 42.7889 268.882 42.7677C268.262 42.7466 267.644 42.859 267.071 43.0973C266.497 43.3356 265.982 43.6943 265.56 44.1491C265.137 44.6039 264.817 45.1441 264.622 45.7333L263.755 48.3333H260.31L259.443 45.7333C259.249 45.1354 258.928 44.5868 258.501 44.1257C258.073 43.6646 257.551 43.3019 256.97 43.0628C256.389 42.8236 255.762 42.7139 255.134 42.741C254.506 42.7681 253.892 42.9316 253.333 43.2199L250.863 44.4549L248.48 42.0716L249.78 39.6666C250.068 39.1081 250.232 38.4936 250.259 37.8656C250.286 37.2376 250.176 36.6113 249.937 36.03C249.698 35.4487 249.335 34.9264 248.874 34.4993C248.413 34.0722 247.865 33.7505 247.267 33.5566L244.667 32.6899V29.3099L247.267 28.4433C247.865 28.2493 248.413 27.9276 248.874 27.5005C249.335 27.0734 249.698 26.5511 249.937 25.9698C250.176 25.3885 250.286 24.7622 250.259 24.1342C250.232 23.5063 250.068 22.8917 249.78 22.3333L248.545 19.9283L250.928 17.5449L253.333 18.7799C253.892 19.0683 254.506 19.2317 255.134 19.2589C255.762 19.286 256.389 19.1762 256.97 18.9371C257.551 18.698 258.073 18.3353 258.501 17.8741C258.928 17.413 259.249 16.8645 259.443 16.2666L260.31 13.6666H263.69L264.557 16.2666C264.751 16.8645 265.072 17.413 265.499 17.8741C265.926 18.3353 266.449 18.698 267.03 18.9371C267.611 19.1762 268.238 19.286 268.866 19.2589C269.494 19.2317 270.108 19.0683 270.667 18.7799L273.137 17.5449L275.52 19.9283L274.22 22.3333C273.943 22.8889 273.789 23.4975 273.768 24.1179C273.747 24.7383 273.859 25.356 274.097 25.9292C274.336 26.5024 274.694 27.0177 275.149 27.4403C275.604 27.8628 276.144 28.1827 276.733 28.3783L279.333 29.2449V32.6899ZM262 22.3333C260.286 22.3333 258.61 22.8415 257.185 23.7939C255.76 24.7462 254.649 26.0997 253.993 27.6833C253.337 29.267 253.165 31.0095 253.5 32.6907C253.834 34.3719 254.66 35.9161 255.872 37.1282C257.084 38.3402 258.628 39.1657 260.309 39.5001C261.99 39.8345 263.733 39.6628 265.317 39.0069C266.9 38.3509 268.254 37.2401 269.206 35.8149C270.158 34.3896 270.667 32.714 270.667 30.9999C270.667 28.7014 269.754 26.497 268.128 24.8717C266.503 23.2464 264.299 22.3333 262 22.3333ZM262 35.3333C261.143 35.3333 260.305 35.0791 259.593 34.603C258.88 34.1268 258.324 33.45 257.997 32.6582C257.669 31.8664 257.583 30.9951 257.75 30.1545C257.917 29.3139 258.33 28.5418 258.936 27.9358C259.542 27.3298 260.314 26.9171 261.155 26.7499C261.995 26.5827 262.866 26.6685 263.658 26.9964C264.45 27.3244 265.127 27.8798 265.603 28.5925C266.079 29.3051 266.333 30.1429 266.333 30.9999C266.333 32.1492 265.877 33.2514 265.064 34.0641C264.251 34.8767 263.149 35.3333 262 35.3333Z" fill="#8B8B8B"/>
<g clip-path="url(#clip1_246_288)">
<path d="M263.328 43.473L259.011 43.4411L259.653 39.1772C259.714 38.7328 259.635 38.2805 259.428 37.8825C259.221 37.4846 258.896 37.1607 258.497 36.9555L252.682 33.9936C252.278 33.7878 251.82 33.7137 251.372 33.7817C250.924 33.8496 250.509 34.0563 250.185 34.3725L247.113 37.3988L244.549 33.9266C244.28 33.5652 243.905 33.2967 243.476 33.1585C243.047 33.0202 242.586 33.019 242.157 33.1552L235.975 35.165C235.543 35.3043 235.165 35.576 234.896 35.9416C234.626 36.3072 234.478 36.7483 234.473 37.2025L234.441 41.5189L230.177 40.8776C229.733 40.8165 229.281 40.8948 228.883 41.1017C228.485 41.3086 228.161 41.6339 227.956 42.0328L224.994 47.8486C224.788 48.2521 224.714 48.7101 224.782 49.1579C224.85 49.6058 225.056 50.0211 225.373 50.3454L228.399 53.4169L224.927 55.9812C224.565 56.2502 224.297 56.6253 224.159 57.0541C224.02 57.4829 224.019 57.9441 224.155 58.3736L226.165 64.5551C226.304 64.9874 226.576 65.365 226.942 65.6345C227.307 65.904 227.748 66.0518 228.203 66.057L232.519 66.0889L231.878 70.3528C231.817 70.7972 231.895 71.2495 232.102 71.6475C232.309 72.0454 232.634 72.3693 233.033 72.5745L238.849 75.5364C239.252 75.7422 239.71 75.8163 240.158 75.7483C240.606 75.6804 241.021 75.4737 241.346 75.1575L244.417 72.1312L246.981 75.6034C247.253 75.9678 247.631 76.2376 248.065 76.3748C248.498 76.512 248.963 76.5097 249.394 76.3681L255.576 74.3583C256.008 74.219 256.386 73.9473 256.655 73.5817C256.925 73.2161 257.073 72.775 257.078 72.3208L257.11 68.0044L261.374 68.6457C261.814 68.7029 262.261 68.6234 262.655 68.418C263.049 68.2126 263.37 67.8911 263.575 67.4972L266.537 61.6814C266.742 61.2779 266.816 60.8199 266.748 60.3721C266.68 59.9242 266.474 59.5089 266.158 59.1846L263.131 56.1131L266.604 53.5488C266.965 53.2798 267.233 52.9047 267.372 52.4759C267.51 52.0471 267.511 51.5859 267.375 51.1564L265.365 44.9749C265.226 44.5426 264.954 44.165 264.589 43.8955C264.223 43.626 263.782 43.4782 263.328 43.473ZM262.772 51.0127L260.567 52.6408C260.058 53.0101 259.636 53.4857 259.33 54.0344C259.023 54.5832 258.84 55.192 258.792 55.8188C258.744 56.4455 258.834 57.0751 259.054 57.6639C259.274 58.2527 259.619 58.7866 260.066 59.2286L262.004 61.1957L260.475 64.1991L257.786 63.7065C257.172 63.615 256.545 63.6565 255.948 63.8282C255.352 63.9999 254.799 64.2978 254.328 64.7017C253.856 65.1056 253.477 65.606 253.216 66.1692C252.955 66.7323 252.818 67.345 252.814 67.9657L252.794 70.7063L249.517 71.7715L247.889 69.5669C247.52 69.0583 247.044 68.6361 246.496 68.3296C245.947 68.0231 245.338 67.8397 244.711 67.792C244.085 67.7444 243.455 67.8336 242.866 68.0536C242.277 68.2736 241.744 68.619 241.302 69.0659L239.334 71.0041L236.331 69.4745L236.824 66.7854C236.925 66.1651 236.891 65.5301 236.722 64.9246C236.554 64.319 236.256 63.7573 235.849 63.2784C235.442 62.7996 234.935 62.415 234.365 62.1514C233.794 61.8878 233.173 61.7515 232.544 61.7519L229.804 61.7316L228.759 58.5173L230.963 56.8892C231.472 56.5199 231.894 56.0443 232.201 55.4956C232.507 54.9468 232.69 54.338 232.738 53.7112C232.786 53.0845 232.697 52.4549 232.477 51.8661C232.257 51.2773 231.911 50.7434 231.464 50.3014L229.546 48.3962L231.076 45.3927L233.745 45.8235C234.365 45.9251 235 45.8905 235.606 45.7221C236.211 45.5538 236.773 45.2557 237.252 44.8486C237.731 44.4415 238.115 43.935 238.379 43.3644C238.642 42.7938 238.779 42.1727 238.778 41.5442L238.798 38.8036L242.013 37.7585L243.641 39.9631C244.01 40.4717 244.486 40.8939 245.035 41.2004C245.583 41.5069 246.192 41.6903 246.819 41.738C247.446 41.7856 248.075 41.6964 248.664 41.4764C249.253 41.2564 249.787 40.911 250.229 40.4641L252.196 38.5259L255.199 40.0555L254.707 42.7446C254.615 43.3586 254.657 43.9851 254.828 44.5816C255 45.1782 255.298 45.7309 255.702 46.2023C256.106 46.6737 256.606 47.0529 257.169 47.3141C257.732 47.5753 258.345 47.7124 258.966 47.7163L261.706 47.7365L262.772 51.0127ZM243.085 46.523C241.455 47.053 240.019 48.0545 238.958 49.4008C237.897 50.7471 237.259 52.3778 237.125 54.0867C236.991 55.7955 237.366 57.5058 238.204 59.0012C239.042 60.4966 240.305 61.7099 241.832 62.4878C243.359 63.2657 245.083 63.5732 246.785 63.3714C248.488 63.1696 250.092 62.4676 251.395 61.3541C252.698 60.2406 253.642 58.7657 254.107 57.1159C254.572 55.466 254.537 53.7154 254.007 52.0853C253.296 49.8994 251.746 48.0853 249.698 47.0422C247.65 45.9991 245.271 45.8123 243.085 46.523ZM247.105 58.886C246.29 59.151 245.415 59.1683 244.59 58.9359C243.765 58.7034 243.027 58.2315 242.471 57.5799C241.914 56.9283 241.563 56.1262 241.462 55.2752C241.361 54.4241 241.515 53.5622 241.904 52.7984C242.293 52.0347 242.899 51.4035 243.647 50.9846C244.395 50.5657 245.25 50.3779 246.104 50.445C246.959 50.512 247.774 50.831 248.447 51.3614C249.12 51.8919 249.621 52.6101 249.886 53.4251C250.241 54.5181 250.148 55.7074 249.627 56.7315C249.105 57.7557 248.198 58.5306 247.105 58.886Z" fill="#C4C4C4"/>
</g>
<defs>
<clipPath id="clip0_246_288">
<rect width="52" height="52" fill="white" transform="translate(115 34.0784) rotate(-18.011)"/>
</clipPath>
<clipPath id="clip1_246_288">
<rect width="52" height="52" fill="white" transform="translate(213 38.0784) rotate(-18.011)"/>
</clipPath>
</defs>
</svg>
