<svg width="543" height="443" viewBox="0 0 543 443" fill="none" xmlns="http://www.w3.org/2000/svg">
<rect x="27" y="226.837" width="451.595" height="249.485" rx="30" transform="rotate(-30.1523 27 226.837)" fill="#2C3646"/>
<rect x="36" y="157.41" width="451.595" height="249.485" rx="30" transform="rotate(-11.8078 36 157.41)" fill="#313C4F"/>
<rect x="60.9999" y="110" width="450" height="250" rx="30" fill="#2C2F33"/>
<rect x="170" y="123" width="317" height="20" rx="10" fill="#23272A"/>
<rect x="177" y="129" width="301" height="7" rx="3.5" fill="#C4C4C4"/>
<path d="M58.9999 141C58.9999 124.431 72.4314 111 88.9999 111H153V361H88.9999C72.4314 361 58.9999 347.568 58.9999 331V141Z" fill="#23272A"/>
<rect x="70.9999" y="123" width="70" height="24" rx="10" fill="#99AAB5"/>
<rect x="70.9999" y="176" width="70" height="10" rx="5" fill="#99AAB5"/>
<rect x="70.9999" y="194" width="70" height="10" rx="5" fill="#99AAB5"/>
<rect x="70.9999" y="212" width="70" height="10" rx="5" fill="#99AAB5"/>
<rect x="70.9999" y="230" width="70" height="10" rx="5" fill="#99AAB5"/>
<rect x="170" y="176" width="98" height="68" rx="10" fill="#23272A"/>
<rect x="170" y="264" width="98" height="68" rx="10" fill="#23272A"/>
<rect x="280" y="264" width="98" height="68" rx="10" fill="#23272A"/>
<rect x="389" y="264" width="98" height="68" rx="10" fill="#23272A"/>
<rect x="389" y="176" width="98" height="68" rx="10" fill="#23272A"/>
<rect x="280" y="176" width="98" height="68" rx="10" fill="#23272A"/>
<circle cx="188" cy="191" r="10" fill="#57F287"/>
<circle cx="298" cy="191" r="10" fill="#5865F2"/>
<circle cx="407" cy="191" r="10" fill="#EB459E"/>
<circle cx="407" cy="279" r="10" fill="#57F287"/>
<circle cx="298" cy="279" r="10" fill="#FEE75C"/>
<circle cx="188" cy="279" r="10" fill="#ED4245"/>
<rect x="178" y="206" width="81" height="4" rx="2" fill="#C4C4C4"/>
<rect x="178" y="211" width="71" height="4" rx="2" fill="#C4C4C4"/>
<rect x="178" y="216" width="75" height="4" rx="2" fill="#C4C4C4"/>
<rect x="178" y="221" width="60" height="4" rx="2" fill="#C4C4C4"/>
<rect x="288" y="206" width="66" height="4" rx="2" fill="#C4C4C4"/>
<rect x="288" y="211" width="61" height="4" rx="2" fill="#C4C4C4"/>
<rect x="288" y="216" width="79" height="4" rx="2" fill="#C4C4C4"/>
<rect x="397" y="216" width="44" height="4" rx="2" fill="#C4C4C4"/>
<rect x="397" y="221" width="63" height="4" rx="2" fill="#C4C4C4"/>
<rect x="397" y="226" width="32" height="4" rx="2" fill="#C4C4C4"/>
<rect x="397" y="211" width="73" height="4" rx="2" fill="#C4C4C4"/>
<rect x="397" y="206" width="18" height="4" rx="2" fill="#C4C4C4"/>
<rect x="397" y="294" width="68" height="4" rx="2" fill="#C4C4C4"/>
<rect x="397" y="299" width="34" height="4" rx="2" fill="#C4C4C4"/>
<rect x="288" y="299" width="59" height="4" rx="2" fill="#C4C4C4"/>
<rect x="178" y="299" width="59" height="4" rx="2" fill="#C4C4C4"/>
<rect x="288" y="304" width="43" height="4" rx="2" fill="#C4C4C4"/>
<rect x="178" y="304" width="67" height="4" rx="2" fill="#C4C4C4"/>
<rect x="288" y="309" width="51" height="4" rx="2" fill="#C4C4C4"/>
<rect x="178" y="309" width="51" height="4" rx="2" fill="#C4C4C4"/>
<rect x="178" y="314" width="75" height="4" rx="2" fill="#C4C4C4"/>
<rect x="288" y="294" width="84" height="4" rx="2" fill="#C4C4C4"/>
<rect x="178" y="294" width="64" height="4" rx="2" fill="#C4C4C4"/>
<rect x="3.54851" y="128.604" width="182" height="44" rx="9.5" transform="rotate(-20 3.54851 128.604)" fill="#D64343" stroke="white"/>
<path d="M65.7974 116.144C67.1569 115.649 68.3334 115.648 69.3271 116.14C70.3296 116.629 71.083 117.567 71.5874 118.953C72.0918 120.338 72.1172 121.541 71.6638 122.56C71.2192 123.576 70.3171 124.332 68.9577 124.826L65.2741 126.167L62.1138 117.484L65.7974 116.144ZM68.1116 123.198C68.8483 122.929 69.3035 122.515 69.4772 121.956C69.6564 121.384 69.588 120.664 69.272 119.795C68.956 118.927 68.5471 118.336 68.0455 118.022C67.5494 117.696 66.933 117.667 66.1963 117.935L64.9991 118.371L66.9144 123.633L68.1116 123.198ZM76.6345 117.309C76.5228 117.002 76.3473 116.793 76.108 116.682C75.8744 116.558 75.6128 116.549 75.3234 116.654C75.034 116.76 74.8111 116.925 74.6549 117.151C74.5043 117.365 74.4565 117.67 74.5117 118.067L72.4544 118.309C72.3474 117.633 72.4883 117.011 72.8773 116.442C73.2663 115.873 73.9387 115.415 74.8947 115.067C75.535 114.834 76.1138 114.733 76.6314 114.763C77.1545 114.781 77.6031 114.936 77.9771 115.227C78.3568 115.506 78.6455 115.917 78.8435 116.461L79.7197 118.868C79.8442 119.21 80.0599 119.325 80.3669 119.214C80.5248 119.156 80.6456 119.092 80.7293 119.022L81.0622 120.346C80.8438 120.565 80.546 120.743 80.1688 120.88C79.8268 121.004 79.5051 121.062 79.2036 121.052C78.899 121.034 78.6323 120.943 78.4034 120.778C78.1713 120.604 77.993 120.346 77.8685 120.004L77.8398 119.925L78.0562 119.742C78.1935 120.119 78.1944 120.476 78.0589 120.814C77.9322 121.148 77.7114 121.442 77.3965 121.695C77.0904 121.946 76.7444 122.141 76.3585 122.282C75.9112 122.444 75.4954 122.516 75.111 122.497C74.7267 122.478 74.3945 122.371 74.1146 122.175C73.8402 121.967 73.6312 121.665 73.4875 121.271C73.3152 120.797 73.3134 120.356 73.4824 119.947C73.6569 119.525 74.0287 119.142 74.598 118.796L76.8977 117.378L77.3155 118.566L76.1483 119.289C75.9043 119.437 75.7357 119.588 75.6425 119.741C75.5548 119.883 75.5477 120.054 75.6211 120.256C75.6913 120.449 75.8141 120.568 75.9896 120.613C76.165 120.659 76.3492 120.646 76.5422 120.576C76.6913 120.522 76.8236 120.449 76.9392 120.357C77.0636 120.262 77.1624 120.152 77.2358 120.026C77.3059 119.891 77.3461 119.742 77.3564 119.579C77.3667 119.417 77.3368 119.239 77.2666 119.046L76.6345 117.309ZM84.911 119.169C84.2532 119.408 83.601 119.526 82.9543 119.523C82.3132 119.508 81.735 119.366 81.2198 119.097L81.8222 117.477C82.1436 117.678 82.5192 117.81 82.949 117.872C83.3844 117.922 83.8258 117.865 84.2731 117.703C84.545 117.604 84.7542 117.483 84.9009 117.34C85.0476 117.197 85.0906 117.042 85.03 116.876C84.9853 116.753 84.9063 116.673 84.7931 116.634C84.6766 116.587 84.4773 116.585 84.195 116.629L83.2071 116.78C82.322 116.913 81.645 116.881 81.1761 116.684C80.7127 116.476 80.3837 116.104 80.1889 115.569C80.0581 115.209 80.0432 114.827 80.1444 114.423C80.2423 114.01 80.4826 113.619 80.8653 113.252C81.2447 112.875 81.7896 112.558 82.5 112.299C83.1666 112.057 83.7893 111.939 84.3683 111.947C84.9472 111.955 85.4528 112.089 85.885 112.348L85.2599 113.947C84.9537 113.76 84.6068 113.653 84.2192 113.625C83.8317 113.597 83.4713 113.644 83.138 113.765C82.9275 113.842 82.7557 113.929 82.6226 114.027C82.495 114.114 82.4089 114.205 82.3643 114.3C82.3197 114.396 82.3165 114.496 82.3548 114.602C82.3963 114.716 82.4856 114.797 82.6228 114.847C82.7655 114.884 82.9972 114.879 83.3177 114.832L84.6011 114.633C85.3211 114.51 85.8893 114.557 86.3056 114.773C86.7219 114.989 87.013 115.325 87.179 115.781C87.3354 116.211 87.3619 116.638 87.2583 117.063C87.1548 117.488 86.9117 117.884 86.5291 118.252C86.1432 118.611 85.6039 118.917 84.911 119.169ZM89.1151 117.49L85.7058 108.123L87.9423 107.309L89.3932 111.295C89.4265 110.786 89.5831 110.357 89.8628 110.007C90.1394 109.648 90.5145 109.382 90.9881 109.21C91.4442 109.044 91.8708 108.988 92.2679 109.042C92.6738 109.093 93.0355 109.254 93.3529 109.526C93.6704 109.798 93.9233 110.192 94.1116 110.71L95.7061 115.091L93.4696 115.905L92.1002 112.142C91.9278 111.669 91.722 111.376 91.4827 111.264C91.2491 111.141 90.9919 111.13 90.7112 111.232C90.5008 111.309 90.3226 111.433 90.1767 111.606C90.0308 111.778 89.9468 111.997 89.9245 112.264C89.9023 112.53 89.9582 112.847 90.0923 113.216L91.3516 116.676L89.1151 117.49ZM101.544 113.115C101.114 113.271 100.698 113.314 100.294 113.242C99.8994 113.167 99.5361 113.001 99.2044 112.745C98.8694 112.479 98.593 112.143 98.3752 111.736L98.4851 111.383L99.2334 113.807L97.2732 114.52L93.8639 105.154L96.1004 104.34L97.8673 109.194L97.5419 108.955C97.4667 108.366 97.5539 107.828 97.8033 107.34C98.0496 106.843 98.4928 106.478 99.1331 106.245C99.6417 106.06 100.143 106.032 100.637 106.16C101.139 106.285 101.594 106.566 102.002 107.004C102.415 107.43 102.754 108.006 103.019 108.734C103.277 109.445 103.385 110.096 103.342 110.687C103.299 111.279 103.126 111.784 102.821 112.203C102.514 112.613 102.088 112.917 101.544 113.115ZM100.169 111.753C100.555 111.612 100.807 111.362 100.924 111.002C101.038 110.632 100.983 110.141 100.76 109.527C100.536 108.913 100.264 108.506 99.9422 108.305C99.6176 108.095 99.2624 108.06 98.8765 108.201C98.6221 108.293 98.43 108.448 98.3001 108.664C98.1758 108.868 98.1132 109.119 98.1125 109.418C98.1118 109.716 98.1801 110.053 98.3174 110.431C98.4546 110.808 98.6194 111.11 98.8116 111.338C99.0039 111.566 99.2176 111.717 99.4529 111.79C99.6849 111.855 99.9237 111.842 100.169 111.753ZM106.21 103.669C106.903 103.417 107.558 103.333 108.174 103.416C108.796 103.488 109.346 103.73 109.824 104.142C110.307 104.542 110.68 105.102 110.941 105.821C111.203 106.54 111.279 107.213 111.169 107.839C111.065 108.453 110.799 108.991 110.372 109.455C109.95 109.906 109.393 110.258 108.7 110.51C108.025 110.756 107.376 110.843 106.754 110.772C106.129 110.691 105.575 110.451 105.091 110.051C104.614 109.639 104.244 109.073 103.982 108.354C103.72 107.635 103.642 106.968 103.746 106.354C103.856 105.728 104.126 105.188 104.556 104.733C104.984 104.27 105.535 103.915 106.21 103.669ZM106.79 105.261C106.535 105.354 106.338 105.495 106.199 105.685C106.059 105.875 105.991 106.123 105.993 106.43C105.996 106.737 106.075 107.105 106.232 107.535C106.388 107.965 106.564 108.298 106.759 108.535C106.952 108.763 107.164 108.909 107.396 108.974C107.625 109.029 107.866 109.011 108.121 108.918C108.384 108.823 108.585 108.68 108.725 108.49C108.861 108.291 108.929 108.043 108.93 107.745C108.928 107.438 108.848 107.069 108.692 106.64C108.535 106.21 108.359 105.877 108.164 105.64C107.969 105.403 107.756 105.257 107.528 105.201C107.299 105.145 107.053 105.165 106.79 105.261ZM115.485 103.169C115.373 102.862 115.198 102.653 114.958 102.541C114.725 102.418 114.463 102.409 114.174 102.514C113.884 102.619 113.662 102.785 113.505 103.011C113.355 103.224 113.307 103.53 113.362 103.927L111.305 104.169C111.198 103.493 111.339 102.87 111.728 102.302C112.117 101.733 112.789 101.275 113.745 100.927C114.385 100.694 114.964 100.592 115.482 100.623C116.005 100.641 116.453 100.795 116.828 101.086C117.207 101.365 117.496 101.777 117.694 102.32L118.57 104.728C118.695 105.07 118.91 105.185 119.217 105.073C119.375 105.016 119.496 104.952 119.58 104.882L119.913 106.206C119.694 106.424 119.396 106.602 119.019 106.74C118.677 106.864 118.355 106.922 118.054 106.912C117.749 106.894 117.483 106.802 117.254 106.637C117.022 106.463 116.843 106.206 116.719 105.863L116.69 105.785L116.907 105.601C117.044 105.979 117.045 106.336 116.909 106.673C116.783 107.007 116.562 107.301 116.247 107.555C115.941 107.805 115.595 108.001 115.209 108.141C114.762 108.304 114.346 108.376 113.961 108.357C113.577 108.338 113.245 108.23 112.965 108.034C112.691 107.826 112.482 107.525 112.338 107.13C112.166 106.657 112.164 106.215 112.333 105.806C112.507 105.385 112.879 105.001 113.448 104.655L115.748 103.237L116.166 104.426L114.999 105.149C114.755 105.297 114.586 105.448 114.493 105.601C114.405 105.742 114.398 105.914 114.472 106.115C114.542 106.308 114.665 106.427 114.84 106.473C115.015 106.518 115.2 106.506 115.393 106.436C115.542 106.381 115.674 106.308 115.79 106.217C115.914 106.122 116.013 106.011 116.086 105.885C116.156 105.75 116.197 105.602 116.207 105.439C116.217 105.276 116.187 105.099 116.117 104.906L115.485 103.169ZM120.951 105.902L118.557 99.3246L120.53 98.6063L121.139 99.9936C121.127 99.4418 121.234 98.9709 121.459 98.5809C121.694 98.1877 122.065 97.8986 122.574 97.7134C122.741 97.6528 122.886 97.6149 123.009 97.5997C123.142 97.5813 123.251 97.5813 123.337 97.5996L123.784 99.5228C123.683 99.5196 123.56 99.5348 123.413 99.5683C123.272 99.5899 123.105 99.6358 122.912 99.706C122.649 99.8018 122.424 99.9482 122.237 100.145C122.051 100.342 121.929 100.58 121.872 100.859C121.82 101.127 121.856 101.431 121.981 101.773L123.187 105.088L120.951 105.902ZM128.995 103.124C128.451 103.321 127.925 103.364 127.418 103.251C126.915 103.126 126.457 102.85 126.044 102.425C125.64 101.996 125.308 101.426 125.05 100.716C124.782 99.979 124.669 99.3148 124.712 98.7231C124.763 98.1282 124.946 97.6199 125.259 97.1979C125.581 96.7728 126.014 96.4613 126.558 96.2634C127.154 96.0463 127.699 96.0565 128.193 96.294C128.692 96.5195 129.097 96.8938 129.406 97.4168L129.296 97.7697L127.525 92.9021L129.761 92.0881L133.17 101.455L131.171 102.183L130.212 99.9989L130.547 100.101C130.654 100.558 130.657 100.989 130.556 101.393C130.463 101.795 130.284 102.148 130.018 102.453C129.757 102.747 129.416 102.97 128.995 103.124ZM129.173 101.197C129.427 101.104 129.618 100.96 129.746 100.765C129.879 100.557 129.944 100.3 129.942 99.993C129.939 99.686 129.866 99.3352 129.722 98.9405C129.588 98.5722 129.427 98.2784 129.238 98.0591C129.054 97.828 128.846 97.6801 128.614 97.6156C128.388 97.5391 128.147 97.5471 127.893 97.6397C127.507 97.7802 127.253 98.0366 127.13 98.409C127.013 98.7695 127.066 99.2567 127.29 99.8706C127.513 100.485 127.787 100.896 128.112 101.106C128.433 101.307 128.787 101.337 129.173 101.197ZM66.9192 139.779C66.9728 140.445 66.8873 141.042 66.6625 141.571C66.4346 142.091 66.0999 142.536 65.6582 142.905C65.2134 143.266 64.684 143.558 64.07 143.781C63.193 144.1 62.3705 144.201 61.6026 144.083C60.8315 143.957 60.1536 143.622 59.5689 143.08C58.9843 142.538 58.5212 141.798 58.1796 140.86C57.838 139.921 57.717 139.056 57.8164 138.265C57.9158 137.474 58.2218 136.787 58.7344 136.203C59.2438 135.61 59.9326 135.156 60.8009 134.84C61.406 134.62 61.9949 134.505 62.5674 134.495C63.1367 134.477 63.6607 134.579 64.1392 134.802C64.6177 135.025 65.032 135.386 65.3822 135.884L63.6878 137.41C63.3671 136.911 63.0297 136.611 62.6756 136.512C62.3303 136.409 61.9472 136.434 61.5262 136.587C61.114 136.737 60.7911 136.969 60.5576 137.283C60.3328 137.593 60.2105 137.98 60.1907 138.444C60.1765 138.896 60.2779 139.42 60.495 140.017C60.7089 140.605 60.9638 141.073 61.2597 141.422C61.5557 141.771 61.8894 141.992 62.261 142.086C62.6414 142.176 63.0553 142.139 63.5026 141.976C63.9235 141.823 64.2373 141.58 64.4437 141.247C64.6557 140.901 64.7265 140.468 64.6562 139.947L66.9192 139.779ZM69.6139 134.016C70.3067 133.764 70.9614 133.68 71.5778 133.763C72.1998 133.835 72.7496 134.077 73.2274 134.489C73.7108 134.889 74.0833 135.449 74.3451 136.168C74.6068 136.887 74.6828 137.56 74.5729 138.186C74.4686 138.8 74.2029 139.338 73.7756 139.802C73.3539 140.253 72.7966 140.605 72.1038 140.857C71.4284 141.103 70.7798 141.19 70.1578 141.118C69.5326 141.038 68.9783 140.798 68.495 140.398C68.0172 139.986 67.6475 139.42 67.3857 138.701C67.1239 137.982 67.0452 137.315 67.1495 136.701C67.2593 136.075 67.5295 135.535 67.96 135.08C68.3872 134.617 68.9385 134.262 69.6139 134.016ZM70.1932 135.608C69.9389 135.701 69.742 135.842 69.6025 136.032C69.463 136.221 69.3945 136.47 69.397 136.777C69.3995 137.084 69.4789 137.452 69.6353 137.882C69.7917 138.312 69.9677 138.645 70.1631 138.882C70.3553 139.11 70.5675 139.256 70.7996 139.321C71.0284 139.376 71.27 139.358 71.5244 139.265C71.7875 139.17 71.9888 139.027 72.1283 138.837C72.2646 138.638 72.3331 138.39 72.3338 138.092C72.3313 137.785 72.2519 137.416 72.0954 136.987C71.939 136.557 71.7631 136.224 71.5677 135.987C71.3722 135.75 71.1601 135.604 70.9312 135.548C70.7023 135.492 70.4564 135.512 70.1932 135.608ZM76.8003 138.999L74.4061 132.421L76.4058 131.693L76.936 132.945C76.9773 132.404 77.1434 131.946 77.4344 131.572C77.7341 131.195 78.1339 130.915 78.6338 130.733C79.125 130.554 79.5902 130.509 80.0296 130.598C80.469 130.686 80.8546 130.913 81.1865 131.279C81.2215 130.939 81.3135 130.632 81.4625 130.359C81.6203 130.083 81.8264 129.844 82.0807 129.642C82.335 129.441 82.6156 129.284 82.9226 129.172C83.3611 129.013 83.7789 128.96 84.1761 129.014C84.57 129.059 84.9273 129.222 85.2479 129.503C85.5741 129.771 85.8314 130.164 86.0197 130.682L87.6142 135.063L85.3778 135.877L83.97 132.009C83.8168 131.588 83.6265 131.325 83.3992 131.219C83.1807 131.109 82.9355 131.104 82.6636 131.203C82.4444 131.283 82.2634 131.413 82.1207 131.595C81.9836 131.764 81.9067 131.975 81.8901 132.23C81.8734 132.484 81.9257 132.778 82.047 133.111L83.3255 136.624L81.089 137.438L79.6813 133.57C79.528 133.149 79.3378 132.886 79.1105 132.78C78.8832 132.674 78.638 132.668 78.3749 132.764C78.1732 132.838 77.9994 132.96 77.8535 133.133C77.7164 133.302 77.6367 133.52 77.6145 133.786C77.589 134.043 77.6417 134.352 77.7726 134.712L79.0367 138.185L76.8003 138.999ZM87.6315 126.743C87.1754 126.909 86.8118 126.947 86.5407 126.857C86.2751 126.755 86.0753 126.52 85.9412 126.152C85.804 125.774 85.8059 125.466 85.9469 125.226C86.0936 124.974 86.3949 124.765 86.851 124.599C87.2983 124.436 87.6591 124.404 87.9334 124.503C88.2046 124.593 88.4088 124.826 88.546 125.204C88.6801 125.572 88.6738 125.882 88.5272 126.134C88.3773 126.377 88.0788 126.58 87.6315 126.743ZM89.0274 127.099L91.4216 133.677L89.1851 134.491L86.791 127.913L89.0274 127.099ZM93.0136 133.098L90.6195 126.52L92.6191 125.792L93.5611 128.012L93.2202 127.853C93.1355 127.347 93.1454 126.897 93.2497 126.501C93.3628 126.102 93.5573 125.763 93.8331 125.484C94.1145 125.193 94.4657 124.971 94.8867 124.818C95.3427 124.652 95.7693 124.596 96.1664 124.65C96.5723 124.701 96.934 124.862 97.2514 125.134C97.5689 125.406 97.8218 125.8 98.0101 126.318L99.6046 130.699L97.3682 131.513L95.9891 127.724C95.8231 127.268 95.6205 126.984 95.3813 126.872C95.142 126.761 94.8864 126.754 94.6146 126.853C94.4041 126.93 94.2259 127.055 94.08 127.227C93.9309 127.39 93.8437 127.601 93.8182 127.858C93.7928 128.116 93.8471 128.429 93.9812 128.797L95.2501 132.284L93.0136 133.098ZM104.503 119.47L105.233 120.903C105.174 120.904 105.119 120.915 105.066 120.934C105.01 120.944 104.956 120.959 104.903 120.978C104.517 121.119 104.263 121.32 104.14 121.584C104.023 121.835 104.016 122.101 104.118 122.381L103.223 122.379C103.092 122.02 103.032 121.649 103.042 121.268C103.052 120.887 103.155 120.542 103.35 120.232C103.555 119.92 103.867 119.687 104.288 119.533C104.314 119.524 104.345 119.513 104.38 119.5C104.424 119.484 104.465 119.474 104.503 119.47ZM104.745 127.174C105.508 126.896 106.15 126.846 106.672 127.024C107.199 127.19 107.571 127.571 107.788 128.167C107.986 128.711 108.001 129.217 107.834 129.685C107.667 130.153 107.343 130.574 106.863 130.947C106.395 131.326 105.793 131.65 105.056 131.918C103.863 132.352 102.949 132.516 102.315 132.409C101.68 132.302 101.27 131.995 101.085 131.486C100.951 131.118 100.991 130.765 101.206 130.428C101.422 130.092 101.873 129.789 102.559 129.519L102.583 129.749C102.022 129.873 101.566 129.861 101.213 129.711C100.861 129.561 100.608 129.276 100.455 128.855C100.302 128.434 100.344 128.031 100.581 127.647C100.819 127.262 101.209 126.956 101.752 126.729L102.707 126.813L102.496 126.89C102.16 127.032 101.94 127.177 101.835 127.324C101.729 127.472 101.702 127.616 101.753 127.756C101.808 127.905 101.911 127.997 102.062 128.031C102.21 128.057 102.407 128.025 102.653 127.935L104.745 127.174ZM104.542 130.466C104.963 130.313 105.299 130.156 105.548 129.995C105.81 129.841 105.991 129.685 106.093 129.529C106.199 129.381 106.227 129.242 106.179 129.11C106.132 128.979 106.045 128.891 105.92 128.847C105.798 128.812 105.61 128.841 105.355 128.933L103 129.79C102.834 129.851 102.714 129.944 102.64 130.07C102.576 130.193 102.568 130.32 102.615 130.452C102.689 130.654 102.894 130.753 103.23 130.75C103.57 130.755 104.007 130.661 104.542 130.466ZM101.677 122.346C102.343 122.104 102.945 121.984 103.483 121.987C104.02 121.99 104.472 122.113 104.839 122.357C105.211 122.589 105.486 122.946 105.661 123.429C105.833 123.902 105.853 124.352 105.72 124.778C105.596 125.201 105.329 125.586 104.919 125.934C104.506 126.273 103.966 126.563 103.3 126.806C102.256 127.186 101.392 127.282 100.708 127.094C100.032 126.903 99.5654 126.452 99.3069 125.742C99.1313 125.259 99.1073 124.811 99.2347 124.397C99.3678 123.971 99.6392 123.584 100.049 123.237C100.459 122.889 101.001 122.592 101.677 122.346ZM102.141 123.622C101.852 123.728 101.645 123.897 101.522 124.131C101.407 124.361 101.405 124.63 101.517 124.937C101.626 125.235 101.798 125.436 102.034 125.539C102.279 125.638 102.546 125.635 102.835 125.53C103.116 125.428 103.318 125.26 103.442 125.026C103.565 124.793 103.573 124.527 103.464 124.228C103.352 123.921 103.174 123.718 102.929 123.619C102.684 123.519 102.422 123.52 102.141 123.622ZM115.108 125.205C114.45 125.444 113.798 125.562 113.151 125.559C112.51 125.544 111.932 125.402 111.417 125.133L112.019 123.513C112.341 123.714 112.716 123.846 113.146 123.908C113.581 123.958 114.023 123.901 114.47 123.739C114.742 123.64 114.951 123.519 115.098 123.376C115.245 123.233 115.288 123.079 115.227 122.912C115.182 122.789 115.103 122.709 114.99 122.67C114.874 122.623 114.674 122.621 114.392 122.665L113.404 122.816C112.519 122.949 111.842 122.917 111.373 122.72C110.91 122.512 110.581 122.14 110.386 121.605C110.255 121.245 110.24 120.863 110.341 120.459C110.439 120.046 110.68 119.655 111.062 119.288C111.442 118.911 111.987 118.594 112.697 118.335C113.364 118.093 113.986 117.975 114.565 117.983C115.144 117.991 115.65 118.125 116.082 118.384L115.457 119.983C115.151 119.796 114.804 119.689 114.416 119.661C114.029 119.633 113.668 119.68 113.335 119.801C113.125 119.878 112.953 119.965 112.82 120.063C112.692 120.15 112.606 120.241 112.561 120.336C112.517 120.432 112.514 120.532 112.552 120.638C112.593 120.752 112.683 120.833 112.82 120.883C112.963 120.92 113.194 120.915 113.515 120.868L114.798 120.669C115.518 120.546 116.086 120.593 116.503 120.809C116.919 121.025 117.21 121.361 117.376 121.817C117.533 122.247 117.559 122.674 117.455 123.099C117.352 123.524 117.109 123.92 116.726 124.288C116.34 124.647 115.801 124.953 115.108 125.205ZM119.963 115.691C120.656 115.439 121.31 115.354 121.927 115.438C122.549 115.509 123.098 115.751 123.576 116.163C124.06 116.563 124.432 117.123 124.694 117.842C124.956 118.561 125.032 119.234 124.922 119.86C124.817 120.474 124.552 121.013 124.124 121.476C123.703 121.928 123.145 122.279 122.453 122.532C121.777 122.777 121.129 122.865 120.507 122.793C119.881 122.713 119.327 122.472 118.844 122.072C118.366 121.66 117.996 121.094 117.735 120.375C117.473 119.656 117.394 118.99 117.498 118.375C117.608 117.749 117.878 117.209 118.309 116.755C118.736 116.291 119.287 115.936 119.963 115.691ZM120.542 117.283C120.288 117.375 120.091 117.516 119.951 117.706C119.812 117.896 119.743 118.144 119.746 118.451C119.748 118.758 119.828 119.127 119.984 119.556C120.141 119.986 120.316 120.32 120.512 120.556C120.704 120.784 120.916 120.931 121.148 120.995C121.377 121.051 121.619 121.032 121.873 120.94C122.136 120.844 122.338 120.701 122.477 120.511C122.613 120.313 122.682 120.064 122.683 119.766C122.68 119.459 122.601 119.091 122.444 118.661C122.288 118.231 122.112 117.898 121.916 117.661C121.721 117.425 121.509 117.278 121.28 117.223C121.051 117.167 120.805 117.187 120.542 117.283ZM127.838 112.824C128.531 112.572 129.186 112.488 129.802 112.571C130.424 112.643 130.974 112.885 131.452 113.297C131.935 113.697 132.308 114.257 132.569 114.976C132.831 115.695 132.907 116.368 132.797 116.994C132.693 117.608 132.427 118.146 132 118.61C131.578 119.061 131.021 119.413 130.328 119.665C129.653 119.911 129.004 119.998 128.382 119.927C127.757 119.846 127.203 119.606 126.719 119.206C126.241 118.794 125.872 118.228 125.61 117.509C125.348 116.79 125.269 116.123 125.374 115.509C125.484 114.883 125.754 114.343 126.184 113.888C126.611 113.425 127.163 113.07 127.838 112.824ZM128.417 114.416C128.163 114.509 127.966 114.65 127.827 114.84C127.687 115.03 127.619 115.278 127.621 115.585C127.624 115.892 127.703 116.26 127.86 116.69C128.016 117.12 128.192 117.453 128.387 117.69C128.58 117.918 128.792 118.064 129.024 118.129C129.253 118.184 129.494 118.166 129.749 118.073C130.012 117.978 130.213 117.835 130.353 117.645C130.489 117.446 130.557 117.198 130.558 116.9C130.556 116.593 130.476 116.224 130.32 115.795C130.163 115.365 129.987 115.032 129.792 114.795C129.596 114.558 129.384 114.412 129.155 114.356C128.927 114.3 128.681 114.32 128.417 114.416ZM135.024 117.807L132.63 111.229L134.63 110.501L135.572 112.721L135.231 112.562C135.146 112.056 135.156 111.606 135.261 111.21C135.374 110.812 135.568 110.473 135.844 110.193C136.125 109.902 136.477 109.68 136.898 109.527C137.354 109.361 137.78 109.305 138.177 109.359C138.583 109.41 138.945 109.571 139.262 109.843C139.58 110.115 139.833 110.51 140.021 111.027L141.615 115.408L139.379 116.222L138 112.433C137.834 111.977 137.631 111.693 137.392 111.582C137.153 111.47 136.897 111.464 136.625 111.563C136.415 111.639 136.237 111.764 136.091 111.936C135.942 112.1 135.855 112.31 135.829 112.568C135.804 112.825 135.858 113.138 135.992 113.507L137.261 116.993L135.024 117.807ZM143.464 112.173C143.876 112.023 144.235 112.011 144.539 112.139C144.853 112.263 145.078 112.514 145.215 112.891C145.349 113.259 145.336 113.592 145.176 113.888C145.025 114.182 144.743 114.404 144.331 114.554C143.927 114.701 143.569 114.712 143.255 114.588C142.942 114.463 142.718 114.217 142.584 113.849C142.447 113.471 142.458 113.135 142.619 112.838C142.779 112.541 143.061 112.319 143.464 112.173ZM147.28 110.784C147.692 110.634 148.05 110.622 148.355 110.75C148.668 110.874 148.894 111.125 149.031 111.502C149.165 111.87 149.152 112.203 148.992 112.5C148.84 112.793 148.559 113.015 148.146 113.165C147.743 113.312 147.385 113.323 147.071 113.199C146.758 113.074 146.534 112.828 146.4 112.46C146.263 112.083 146.274 111.746 146.434 111.449C146.594 111.152 146.876 110.931 147.28 110.784ZM151.095 109.395C151.508 109.245 151.866 109.234 152.171 109.361C152.484 109.485 152.709 109.736 152.847 110.113C152.981 110.482 152.968 110.814 152.808 111.111C152.656 111.404 152.374 111.626 151.962 111.776C151.559 111.923 151.2 111.934 150.887 111.81C150.573 111.686 150.35 111.439 150.216 111.071C150.078 110.694 150.09 110.357 150.25 110.06C150.41 109.764 150.692 109.542 151.095 109.395Z" fill="white"/>
<g clip-path="url(#clip0_246_204)">
<path d="M27.0846 134.65C21.9163 136.531 19.2268 142.299 21.1079 147.467C22.989 152.636 28.7567 155.325 33.925 153.444C39.0933 151.563 41.7828 145.795 39.9017 140.627C38.0206 135.459 32.2529 132.769 27.0846 134.65ZM32.2149 148.746C31.6511 148.951 31.1384 148.712 30.9332 148.148C30.728 147.584 30.9671 147.072 31.5309 146.866C32.0947 146.661 32.6074 146.9 32.8126 147.464C33.0178 148.028 32.7787 148.541 32.2149 148.746ZM31.4445 143.705C31.6497 144.269 31.4106 144.782 30.8468 144.987C30.283 145.192 29.7703 144.953 29.5651 144.389L28.197 140.631C27.9918 140.067 28.2309 139.554 28.7947 139.349C29.3585 139.144 29.8712 139.383 30.0764 139.946L31.4445 143.705Z" fill="white"/>
</g>
<defs>
<clipPath id="clip0_246_204">
<rect width="24" height="24" fill="white" transform="translate(15.1243 136.875) rotate(-20)"/>
</clipPath>
</defs>
</svg>
