<svg width="484" height="314" viewBox="0 0 484 314" fill="none" xmlns="http://www.w3.org/2000/svg">
<rect x="37.1461" width="451.595" height="249.485" rx="30" transform="rotate(8.56269 37.1461 0)" fill="#313C4F"/>
<rect x="17" y="24" width="450" height="250" rx="30" fill="#2C2F33"/>
<path d="M376 24H437C453.569 24 467 37.4315 467 54V244C467 260.569 453.569 274 437 274H376V24Z" fill="#23272A"/>
<rect x="385" y="35" width="50" height="10" rx="5" fill="#57F287"/>
<rect x="385" y="58" width="65" height="10" rx="5" fill="#FEE75C"/>
<rect x="385" y="81" width="37" height="10" rx="5" fill="#EB459E"/>
<rect x="385" y="104" width="52" height="10" rx="5" fill="#5865F2"/>
<rect x="385" y="127" width="44" height="10" rx="5" fill="#57F287"/>
<rect x="385" y="150" width="37" height="10" rx="5" fill="#ED4245"/>
<rect x="385" y="173" width="59" height="10" rx="5" fill="#FEE75C"/>
<rect x="385" y="196" width="28" height="10" rx="5" fill="#5865F2"/>
<rect x="385" y="219" width="52" height="10" rx="5" fill="#57F287"/>
<rect x="385" y="242" width="69" height="10" rx="5" fill="#EB459E"/>
<path d="M52 274H47C30.4315 274 17 260.569 17 244L17 54C17 37.4315 30.4315 24 47 24H52L52 274Z" fill="#17191C"/>
<path d="M143 274H52L52 24H143L143 274Z" fill="#23272A"/>
<rect x="57" y="63" width="66" height="8" rx="4" fill="#99AAB5"/>
<rect x="57" y="78" width="45" height="8" rx="4" fill="#99AAB5"/>
<rect x="57" y="93" width="56" height="8" rx="4" fill="#99AAB5"/>
<rect x="57" y="108" width="30" height="8" rx="4" fill="#99AAB5"/>
<rect x="57" y="123" width="74" height="8" rx="4" fill="#99AAB5"/>
<rect x="57" y="138" width="35" height="8" rx="4" fill="#99AAB5"/>
<rect x="57" y="153" width="63" height="8" rx="4" fill="#99AAB5"/>
<rect x="57" y="168" width="39" height="8" rx="4" fill="#99AAB5"/>
<rect x="57" y="183" width="69" height="8" rx="4" fill="#99AAB5"/>
<rect x="57" y="198" width="78" height="8" rx="4" fill="#99AAB5"/>
<rect x="57" y="213" width="21" height="8" rx="4" fill="#99AAB5"/>
<rect x="57" y="228" width="42" height="8" rx="4" fill="#99AAB5"/>
<rect x="57" y="243" width="53" height="8" rx="4" fill="#99AAB5"/>
<rect x="57" y="30" width="81" height="24" rx="5" fill="#99AAB5"/>
<circle cx="161.5" cy="49.5" r="7.5" fill="#5865F2"/>
<circle cx="161.5" cy="98.5" r="7.5" fill="#EB459E"/>
<circle cx="161.5" cy="138.5" r="7.5" fill="#ED4245"/>
<circle cx="161.5" cy="195.5" r="7.5" fill="#FEE75C"/>
<circle cx="161.5" cy="232.5" r="7.5" fill="#57F287"/>
<rect x="154" y="61" width="200" height="4" rx="2" fill="#C4C4C4"/>
<rect x="154" y="66" width="200" height="4" rx="2" fill="#C4C4C4"/>
<rect x="154" y="71" width="200" height="4" rx="2" fill="#C4C4C4"/>
<rect x="154" y="76" width="200" height="4" rx="2" fill="#C4C4C4"/>
<rect x="154" y="110" width="200" height="4" rx="2" fill="#C4C4C4"/>
<rect x="154" y="115" width="200" height="4" rx="2" fill="#C4C4C4"/>
<rect x="154" y="155" width="200" height="4" rx="2" fill="#C4C4C4"/>
<rect x="154" y="160" width="200" height="4" rx="2" fill="#C4C4C4"/>
<rect x="154" y="165" width="200" height="4" rx="2" fill="#C4C4C4"/>
<rect x="154" y="170" width="200" height="4" rx="2" fill="#C4C4C4"/>
<rect x="154" y="175" width="200" height="4" rx="2" fill="#C4C4C4"/>
<rect x="154" y="207" width="200" height="4" rx="2" fill="#C4C4C4"/>
<rect x="154" y="212" width="200" height="4" rx="2" fill="#C4C4C4"/>
<rect x="154" y="244" width="200" height="4" rx="2" fill="#C4C4C4"/>
<rect x="154" y="249" width="200" height="4" rx="2" fill="#C4C4C4"/>
<circle cx="35" cy="57" r="10" fill="#FEE75C"/>
<circle cx="35" cy="93" r="10" fill="#5865F2"/>
<circle cx="35" cy="129" r="10" fill="#EB459E"/>
<circle cx="35" cy="165" r="10" fill="#ED4245"/>
<circle cx="35" cy="201" r="10" fill="#FEE75C"/>
<circle cx="35" cy="237" r="10" fill="#57F287"/>
</svg>
